M48
; DRILL file {KiCad 8.0.3} date 2024-06-25T22:27:29+0530
; FORMAT={-:-/ absolute / metric / decimal}
; #@! TF.CreationDate,2024-06-25T22:27:29+05:30
; #@! TF.GenerationSoftware,Kicad,Pcbnew,8.0.3
; #@! TF.FileFunction,MixedPlating,1,2
FMAT,2
METRIC
; #@! TA.AperFunction,Plated,PTH,ViaDrill
T1C0.300
; #@! TA.AperFunction,Plated,PTH,ComponentDrill
T2C0.800
; #@! TA.AperFunction,Plated,PTH,ComponentDrill
T3C0.889
; #@! TA.AperFunction,Plated,PTH,ComponentDrill
T4C0.900
; #@! TA.AperFunction,Plated,PTH,ComponentDrill
T5C1.000
; #@! TA.AperFunction,Plated,PTH,ComponentDrill
T6C1.100
; #@! TA.AperFunction,Plated,PTH,ComponentDrill
T7C1.200
; #@! TA.AperFunction,Plated,PTH,ComponentDrill
T8C1.400
; #@! TA.AperFunction,Plated,PTH,ComponentDrill
T9C1.600
; #@! TA.AperFunction,NonPlated,NPTH,ComponentDrill
T10C3.200
%
G90
G05
T1
X45.72Y-96.52
X45.72Y-215.36
X60.96Y-96.52
X60.96Y-215.36
X96.52Y-111.76
X96.52Y-230.6
X109.22Y-81.28
X109.22Y-99.06
X109.22Y-200.12
X109.22Y-217.9
X111.76Y-124.46
X111.76Y-243.3
X114.3Y-96.52
X114.3Y-104.14
X114.3Y-215.36
X114.3Y-222.98
X127.0Y-86.36
X127.0Y-88.9
X127.0Y-205.2
X127.0Y-207.74
X129.54Y-71.12
X129.54Y-81.28
X129.54Y-189.96
X129.54Y-200.12
X139.7Y-76.2
X139.7Y-195.04
X142.24Y-73.66
X142.24Y-81.28
X142.24Y-192.5
X142.24Y-200.12
X144.78Y-76.2
X144.78Y-195.04
X192.5Y-96.52
X192.5Y-215.36
X207.74Y-96.52
X207.74Y-215.36
X243.3Y-111.76
X243.3Y-230.6
X256.0Y-81.28
X256.0Y-99.06
X256.0Y-200.12
X256.0Y-217.9
X258.54Y-124.46
X258.54Y-243.3
X261.08Y-96.52
X261.08Y-104.14
X261.08Y-215.36
X261.08Y-222.98
X273.78Y-86.36
X273.78Y-88.9
X273.78Y-205.2
X273.78Y-207.74
X276.32Y-71.12
X276.32Y-81.28
X276.32Y-189.96
X276.32Y-200.12
X286.48Y-76.2
X286.48Y-195.04
X289.02Y-73.66
X289.02Y-81.28
X289.02Y-192.5
X289.02Y-200.12
X291.56Y-76.2
X291.56Y-195.04
T2
X25.4Y-88.9
X25.4Y-104.14
X25.4Y-207.74
X25.4Y-222.98
X27.94Y-116.84
X27.94Y-121.92
X27.94Y-235.68
X27.94Y-240.76
X29.215Y-105.42
X29.215Y-113.04
X29.215Y-224.26
X29.215Y-231.88
X31.755Y-105.42
X31.755Y-113.04
X31.755Y-224.26
X31.755Y-231.88
X35.56Y-106.68
X35.56Y-111.76
X35.56Y-225.52
X35.56Y-230.6
X43.18Y-116.84
X43.18Y-121.92
X43.18Y-235.68
X43.18Y-240.76
X46.995Y-115.58
X46.995Y-123.2
X46.995Y-234.42
X46.995Y-242.04
X49.535Y-115.58
X49.535Y-123.2
X49.535Y-234.42
X49.535Y-242.04
X50.8Y-106.68
X50.8Y-111.76
X50.8Y-225.52
X50.8Y-230.6
X57.16Y-107.945
X57.16Y-110.485
X57.16Y-226.785
X57.16Y-229.325
X64.78Y-107.945
X64.78Y-110.485
X64.78Y-226.785
X64.78Y-229.325
X68.58Y-53.34
X68.58Y-58.42
X68.58Y-63.5
X68.58Y-68.58
X68.58Y-76.2
X68.58Y-81.28
X68.58Y-86.36
X68.58Y-91.44
X68.58Y-172.18
X68.58Y-177.26
X68.58Y-182.34
X68.58Y-187.42
X68.58Y-195.04
X68.58Y-200.12
X68.58Y-205.2
X68.58Y-210.28
X77.48Y-97.785
X77.48Y-100.325
X77.48Y-216.625
X77.48Y-219.165
X81.043Y-114.207
X81.043Y-233.047
X81.28Y-104.14
X81.28Y-222.98
X83.043Y-108.207
X83.043Y-120.207
X83.043Y-227.047
X83.043Y-239.047
X83.82Y-53.34
X83.82Y-58.42
X83.82Y-63.5
X83.82Y-68.58
X83.82Y-76.2
X83.82Y-81.28
X83.82Y-86.36
X83.82Y-91.44
X83.82Y-172.18
X83.82Y-177.26
X83.82Y-182.34
X83.82Y-187.42
X83.82Y-195.04
X83.82Y-200.12
X83.82Y-205.2
X83.82Y-210.28
X85.1Y-97.785
X85.1Y-100.325
X85.1Y-216.625
X85.1Y-219.165
X88.9Y-46.734
X88.9Y-49.274
X88.9Y-54.354
X88.9Y-56.894
X88.9Y-62.737
X88.9Y-65.277
X88.9Y-71.12
X88.9Y-73.66
X88.9Y-79.503
X88.9Y-82.043
X88.9Y-87.886
X88.9Y-90.426
X88.9Y-96.269
X88.9Y-98.809
X88.9Y-165.574
X88.9Y-168.114
X88.9Y-173.194
X88.9Y-175.734
X88.9Y-181.577
X88.9Y-184.117
X88.9Y-189.96
X88.9Y-192.5
X88.9Y-198.343
X88.9Y-200.883
X88.9Y-206.726
X88.9Y-209.266
X88.9Y-215.109
X88.9Y-217.649
X95.243Y-108.207
X95.243Y-120.207
X95.243Y-227.047
X95.243Y-239.047
X96.52Y-46.734
X96.52Y-49.274
X96.52Y-54.354
X96.52Y-56.894
X96.52Y-62.737
X96.52Y-65.277
X96.52Y-71.12
X96.52Y-73.66
X96.52Y-79.503
X96.52Y-82.043
X96.52Y-87.886
X96.52Y-90.426
X96.52Y-96.269
X96.52Y-98.809
X96.52Y-104.14
X96.52Y-165.574
X96.52Y-168.114
X96.52Y-173.194
X96.52Y-175.734
X96.52Y-181.577
X96.52Y-184.117
X96.52Y-189.96
X96.52Y-192.5
X96.52Y-198.343
X96.52Y-200.883
X96.52Y-206.726
X96.52Y-209.266
X96.52Y-215.109
X96.52Y-217.649
X96.52Y-222.98
X101.6Y-40.64
X101.6Y-55.88
X101.6Y-60.96
X101.6Y-76.2
X101.6Y-81.28
X101.6Y-96.52
X101.6Y-101.6
X101.6Y-159.48
X101.6Y-174.72
X101.6Y-179.8
X101.6Y-195.04
X101.6Y-200.12
X101.6Y-215.36
X101.6Y-220.44
X106.68Y-40.64
X106.68Y-55.88
X106.68Y-60.96
X106.68Y-76.2
X106.68Y-81.28
X106.68Y-96.52
X106.68Y-159.48
X106.68Y-174.72
X106.68Y-179.8
X106.68Y-195.04
X106.68Y-200.12
X106.68Y-215.36
X111.76Y-81.28
X111.76Y-96.52
X111.76Y-200.12
X111.76Y-215.36
X114.3Y-60.96
X114.3Y-76.2
X114.3Y-106.68
X114.3Y-121.92
X114.3Y-179.8
X114.3Y-195.04
X114.3Y-225.52
X114.3Y-240.76
X116.84Y-81.28
X116.84Y-96.52
X116.84Y-101.6
X116.84Y-200.12
X116.84Y-215.36
X116.84Y-220.44
X119.143Y-114.207
X119.143Y-233.047
X121.143Y-108.207
X121.143Y-120.207
X121.143Y-227.047
X121.143Y-239.047
X129.58Y-91.44
X129.58Y-210.28
X132.08Y-71.12
X132.08Y-86.36
X132.08Y-91.44
X132.08Y-189.96
X132.08Y-205.2
X132.08Y-210.28
X133.343Y-108.207
X133.343Y-120.207
X133.343Y-227.047
X133.343Y-239.047
X139.74Y-119.38
X139.74Y-238.22
X142.24Y-119.38
X142.24Y-238.22
X172.18Y-88.9
X172.18Y-104.14
X172.18Y-207.74
X172.18Y-222.98
X174.72Y-116.84
X174.72Y-121.92
X174.72Y-235.68
X174.72Y-240.76
X175.995Y-105.42
X175.995Y-113.04
X175.995Y-224.26
X175.995Y-231.88
X178.535Y-105.42
X178.535Y-113.04
X178.535Y-224.26
X178.535Y-231.88
X182.34Y-106.68
X182.34Y-111.76
X182.34Y-225.52
X182.34Y-230.6
X189.96Y-116.84
X189.96Y-121.92
X189.96Y-235.68
X189.96Y-240.76
X193.775Y-115.58
X193.775Y-123.2
X193.775Y-234.42
X193.775Y-242.04
X196.315Y-115.58
X196.315Y-123.2
X196.315Y-234.42
X196.315Y-242.04
X197.58Y-106.68
X197.58Y-111.76
X197.58Y-225.52
X197.58Y-230.6
X203.94Y-107.945
X203.94Y-110.485
X203.94Y-226.785
X203.94Y-229.325
X211.56Y-107.945
X211.56Y-110.485
X211.56Y-226.785
X211.56Y-229.325
X215.36Y-53.34
X215.36Y-58.42
X215.36Y-63.5
X215.36Y-68.58
X215.36Y-76.2
X215.36Y-81.28
X215.36Y-86.36
X215.36Y-91.44
X215.36Y-172.18
X215.36Y-177.26
X215.36Y-182.34
X215.36Y-187.42
X215.36Y-195.04
X215.36Y-200.12
X215.36Y-205.2
X215.36Y-210.28
X224.26Y-97.785
X224.26Y-100.325
X224.26Y-216.625
X224.26Y-219.165
X227.823Y-114.207
X227.823Y-233.047
X228.06Y-104.14
X228.06Y-222.98
X229.823Y-108.207
X229.823Y-120.207
X229.823Y-227.047
X229.823Y-239.047
X230.6Y-53.34
X230.6Y-58.42
X230.6Y-63.5
X230.6Y-68.58
X230.6Y-76.2
X230.6Y-81.28
X230.6Y-86.36
X230.6Y-91.44
X230.6Y-172.18
X230.6Y-177.26
X230.6Y-182.34
X230.6Y-187.42
X230.6Y-195.04
X230.6Y-200.12
X230.6Y-205.2
X230.6Y-210.28
X231.88Y-97.785
X231.88Y-100.325
X231.88Y-216.625
X231.88Y-219.165
X235.68Y-46.734
X235.68Y-49.274
X235.68Y-54.354
X235.68Y-56.894
X235.68Y-62.737
X235.68Y-65.277
X235.68Y-71.12
X235.68Y-73.66
X235.68Y-79.503
X235.68Y-82.043
X235.68Y-87.886
X235.68Y-90.426
X235.68Y-96.269
X235.68Y-98.809
X235.68Y-165.574
X235.68Y-168.114
X235.68Y-173.194
X235.68Y-175.734
X235.68Y-181.577
X235.68Y-184.117
X235.68Y-189.96
X235.68Y-192.5
X235.68Y-198.343
X235.68Y-200.883
X235.68Y-206.726
X235.68Y-209.266
X235.68Y-215.109
X235.68Y-217.649
X242.023Y-108.207
X242.023Y-120.207
X242.023Y-227.047
X242.023Y-239.047
X243.3Y-46.734
X243.3Y-49.274
X243.3Y-54.354
X243.3Y-56.894
X243.3Y-62.737
X243.3Y-65.277
X243.3Y-71.12
X243.3Y-73.66
X243.3Y-79.503
X243.3Y-82.043
X243.3Y-87.886
X243.3Y-90.426
X243.3Y-96.269
X243.3Y-98.809
X243.3Y-104.14
X243.3Y-165.574
X243.3Y-168.114
X243.3Y-173.194
X243.3Y-175.734
X243.3Y-181.577
X243.3Y-184.117
X243.3Y-189.96
X243.3Y-192.5
X243.3Y-198.343
X243.3Y-200.883
X243.3Y-206.726
X243.3Y-209.266
X243.3Y-215.109
X243.3Y-217.649
X243.3Y-222.98
X248.38Y-40.64
X248.38Y-55.88
X248.38Y-60.96
X248.38Y-76.2
X248.38Y-81.28
X248.38Y-96.52
X248.38Y-101.6
X248.38Y-159.48
X248.38Y-174.72
X248.38Y-179.8
X248.38Y-195.04
X248.38Y-200.12
X248.38Y-215.36
X248.38Y-220.44
X253.46Y-40.64
X253.46Y-55.88
X253.46Y-60.96
X253.46Y-76.2
X253.46Y-81.28
X253.46Y-96.52
X253.46Y-159.48
X253.46Y-174.72
X253.46Y-179.8
X253.46Y-195.04
X253.46Y-200.12
X253.46Y-215.36
X258.54Y-81.28
X258.54Y-96.52
X258.54Y-200.12
X258.54Y-215.36
X261.08Y-60.96
X261.08Y-76.2
X261.08Y-106.68
X261.08Y-121.92
X261.08Y-179.8
X261.08Y-195.04
X261.08Y-225.52
X261.08Y-240.76
X263.62Y-81.28
X263.62Y-96.52
X263.62Y-101.6
X263.62Y-200.12
X263.62Y-215.36
X263.62Y-220.44
X265.923Y-114.207
X265.923Y-233.047
X267.923Y-108.207
X267.923Y-120.207
X267.923Y-227.047
X267.923Y-239.047
X276.36Y-91.44
X276.36Y-210.28
X278.86Y-71.12
X278.86Y-86.36
X278.86Y-91.44
X278.86Y-189.96
X278.86Y-205.2
X278.86Y-210.28
X280.123Y-108.207
X280.123Y-120.207
X280.123Y-227.047
X280.123Y-239.047
X286.52Y-119.38
X286.52Y-238.22
X289.02Y-119.38
X289.02Y-238.22
T3
X31.496Y-57.404
X31.496Y-59.944
X31.496Y-62.484
X31.496Y-65.024
X31.496Y-67.564
X31.496Y-70.104
X31.496Y-72.644
X31.496Y-75.184
X31.496Y-77.724
X31.496Y-80.264
X31.496Y-82.804
X31.496Y-85.344
X31.496Y-87.884
X31.496Y-90.424
X31.496Y-92.964
X31.496Y-176.244
X31.496Y-178.784
X31.496Y-181.324
X31.496Y-183.864
X31.496Y-186.404
X31.496Y-188.944
X31.496Y-191.484
X31.496Y-194.024
X31.496Y-196.564
X31.496Y-199.104
X31.496Y-201.644
X31.496Y-204.184
X31.496Y-206.724
X31.496Y-209.264
X31.496Y-211.804
X59.69Y-57.404
X59.69Y-59.944
X59.69Y-62.484
X59.69Y-65.024
X59.69Y-67.564
X59.69Y-70.104
X59.69Y-72.644
X59.69Y-75.184
X59.69Y-77.724
X59.69Y-80.264
X59.69Y-82.804
X59.69Y-85.344
X59.69Y-87.884
X59.69Y-90.424
X59.69Y-92.964
X59.69Y-176.244
X59.69Y-178.784
X59.69Y-181.324
X59.69Y-183.864
X59.69Y-186.404
X59.69Y-188.944
X59.69Y-191.484
X59.69Y-194.024
X59.69Y-196.564
X59.69Y-199.104
X59.69Y-201.644
X59.69Y-204.184
X59.69Y-206.724
X59.69Y-209.264
X59.69Y-211.804
X178.276Y-57.404
X178.276Y-59.944
X178.276Y-62.484
X178.276Y-65.024
X178.276Y-67.564
X178.276Y-70.104
X178.276Y-72.644
X178.276Y-75.184
X178.276Y-77.724
X178.276Y-80.264
X178.276Y-82.804
X178.276Y-85.344
X178.276Y-87.884
X178.276Y-90.424
X178.276Y-92.964
X178.276Y-176.244
X178.276Y-178.784
X178.276Y-181.324
X178.276Y-183.864
X178.276Y-186.404
X178.276Y-188.944
X178.276Y-191.484
X178.276Y-194.024
X178.276Y-196.564
X178.276Y-199.104
X178.276Y-201.644
X178.276Y-204.184
X178.276Y-206.724
X178.276Y-209.264
X178.276Y-211.804
X206.47Y-57.404
X206.47Y-59.944
X206.47Y-62.484
X206.47Y-65.024
X206.47Y-67.564
X206.47Y-70.104
X206.47Y-72.644
X206.47Y-75.184
X206.47Y-77.724
X206.47Y-80.264
X206.47Y-82.804
X206.47Y-85.344
X206.47Y-87.884
X206.47Y-90.424
X206.47Y-92.964
X206.47Y-176.244
X206.47Y-178.784
X206.47Y-181.324
X206.47Y-183.864
X206.47Y-186.404
X206.47Y-188.944
X206.47Y-191.484
X206.47Y-194.024
X206.47Y-196.564
X206.47Y-199.104
X206.47Y-201.644
X206.47Y-204.184
X206.47Y-206.724
X206.47Y-209.264
X206.47Y-211.804
T4
X121.92Y-83.82
X121.92Y-92.71
X121.92Y-101.6
X121.92Y-202.66
X121.92Y-211.55
X121.92Y-220.44
X124.46Y-83.82
X124.46Y-92.71
X124.46Y-101.6
X124.46Y-202.66
X124.46Y-211.55
X124.46Y-220.44
X268.7Y-83.82
X268.7Y-92.71
X268.7Y-101.6
X268.7Y-202.66
X268.7Y-211.55
X268.7Y-220.44
X271.24Y-83.82
X271.24Y-92.71
X271.24Y-101.6
X271.24Y-202.66
X271.24Y-211.55
X271.24Y-220.44
T5
X68.58Y-99.32
X68.58Y-101.6
X68.58Y-103.88
X68.58Y-218.16
X68.58Y-220.44
X68.58Y-222.72
X71.64Y-124.46
X71.64Y-243.3
X73.92Y-124.46
X73.92Y-243.3
X76.2Y-124.46
X76.2Y-243.3
X121.92Y-63.22
X121.92Y-68.02
X121.92Y-72.82
X121.92Y-77.62
X121.92Y-182.06
X121.92Y-186.86
X121.92Y-191.66
X121.92Y-196.46
X122.18Y-55.88
X122.18Y-174.72
X124.2Y-63.22
X124.2Y-68.02
X124.2Y-72.82
X124.2Y-77.62
X124.2Y-182.06
X124.2Y-186.86
X124.2Y-191.66
X124.2Y-196.46
X124.46Y-55.88
X124.46Y-174.72
X126.48Y-63.22
X126.48Y-68.02
X126.48Y-72.82
X126.48Y-77.62
X126.48Y-182.06
X126.48Y-186.86
X126.48Y-191.66
X126.48Y-196.46
X126.74Y-55.88
X126.74Y-174.72
X134.62Y-96.6
X134.62Y-101.6
X134.62Y-215.44
X134.62Y-220.44
X142.32Y-109.22
X142.32Y-228.06
X147.32Y-109.22
X147.32Y-228.06
X215.36Y-99.32
X215.36Y-101.6
X215.36Y-103.88
X215.36Y-218.16
X215.36Y-220.44
X215.36Y-222.72
X218.42Y-124.46
X218.42Y-243.3
X220.7Y-124.46
X220.7Y-243.3
X222.98Y-124.46
X222.98Y-243.3
X268.7Y-63.22
X268.7Y-68.02
X268.7Y-72.82
X268.7Y-77.62
X268.7Y-182.06
X268.7Y-186.86
X268.7Y-191.66
X268.7Y-196.46
X268.96Y-55.88
X268.96Y-174.72
X270.98Y-63.22
X270.98Y-68.02
X270.98Y-72.82
X270.98Y-77.62
X270.98Y-182.06
X270.98Y-186.86
X270.98Y-191.66
X270.98Y-196.46
X271.24Y-55.88
X271.24Y-174.72
X273.26Y-63.22
X273.26Y-68.02
X273.26Y-72.82
X273.26Y-77.62
X273.26Y-182.06
X273.26Y-186.86
X273.26Y-191.66
X273.26Y-196.46
X273.52Y-55.88
X273.52Y-174.72
X281.4Y-96.6
X281.4Y-101.6
X281.4Y-215.44
X281.4Y-220.44
X289.1Y-109.22
X289.1Y-228.06
X294.1Y-109.22
X294.1Y-228.06
T6
X134.62Y-60.96
X134.62Y-63.5
X134.62Y-66.04
X134.62Y-179.8
X134.62Y-182.34
X134.62Y-184.88
X137.16Y-81.28
X137.16Y-83.82
X137.16Y-86.36
X137.16Y-200.12
X137.16Y-202.66
X137.16Y-205.2
X281.4Y-60.96
X281.4Y-63.5
X281.4Y-66.04
X281.4Y-179.8
X281.4Y-182.34
X281.4Y-184.88
X283.94Y-81.28
X283.94Y-83.82
X283.94Y-86.36
X283.94Y-200.12
X283.94Y-202.66
X283.94Y-205.2
T7
X20.32Y-91.44
X20.32Y-116.84
X20.32Y-210.28
X20.32Y-235.68
X60.0Y-124.46
X60.0Y-243.3
X63.5Y-124.46
X63.5Y-243.3
X81.28Y-35.56
X81.28Y-154.4
X101.6Y-124.46
X101.6Y-243.3
X105.1Y-124.46
X105.1Y-243.3
X111.76Y-35.56
X111.76Y-154.4
X121.59Y-20.32
X121.59Y-50.8
X121.59Y-139.16
X121.59Y-169.64
X129.54Y-20.32
X129.54Y-50.8
X129.54Y-139.16
X129.54Y-169.64
X137.49Y-20.32
X137.49Y-50.8
X137.49Y-139.16
X137.49Y-169.64
X147.32Y-124.46
X147.32Y-243.3
X149.86Y-60.96
X149.86Y-64.46
X149.86Y-93.02
X149.86Y-96.52
X149.86Y-179.8
X149.86Y-183.3
X149.86Y-211.86
X149.86Y-215.36
X150.82Y-124.46
X150.82Y-243.3
X167.1Y-91.44
X167.1Y-116.84
X167.1Y-210.28
X167.1Y-235.68
X206.78Y-124.46
X206.78Y-243.3
X210.28Y-124.46
X210.28Y-243.3
X228.06Y-35.56
X228.06Y-154.4
X248.38Y-124.46
X248.38Y-243.3
X251.88Y-124.46
X251.88Y-243.3
X258.54Y-35.56
X258.54Y-154.4
X268.37Y-20.32
X268.37Y-50.8
X268.37Y-139.16
X268.37Y-169.64
X276.32Y-20.32
X276.32Y-50.8
X276.32Y-139.16
X276.32Y-169.64
X284.27Y-20.32
X284.27Y-50.8
X284.27Y-139.16
X284.27Y-169.64
X294.1Y-124.46
X294.1Y-243.3
X296.64Y-60.96
X296.64Y-64.46
X296.64Y-93.02
X296.64Y-96.52
X296.64Y-179.8
X296.64Y-183.3
X296.64Y-211.86
X296.64Y-215.36
X297.6Y-124.46
X297.6Y-243.3
T8
X54.61Y-116.84
X54.61Y-235.68
X67.31Y-116.84
X67.31Y-235.68
X73.66Y-107.95
X73.66Y-120.65
X73.66Y-226.79
X73.66Y-239.49
X106.68Y-105.41
X106.68Y-118.11
X106.68Y-224.25
X106.68Y-236.95
X201.39Y-116.84
X201.39Y-235.68
X214.09Y-116.84
X214.09Y-235.68
X220.44Y-107.95
X220.44Y-120.65
X220.44Y-226.79
X220.44Y-239.49
X253.46Y-105.41
X253.46Y-118.11
X253.46Y-224.25
X253.46Y-236.95
T9
X149.86Y-71.12
X149.86Y-76.2
X149.86Y-81.28
X149.86Y-86.36
X149.86Y-189.96
X149.86Y-195.04
X149.86Y-200.12
X149.86Y-205.2
X296.64Y-71.12
X296.64Y-76.2
X296.64Y-81.28
X296.64Y-86.36
X296.64Y-189.96
X296.64Y-195.04
X296.64Y-200.12
X296.64Y-205.2
T10
X32.766Y-48.26
X32.766Y-99.314
X32.766Y-167.1
X32.766Y-218.154
X58.928Y-48.26
X58.928Y-99.568
X58.928Y-167.1
X58.928Y-218.408
X179.546Y-48.26
X179.546Y-99.314
X179.546Y-167.1
X179.546Y-218.154
X205.708Y-48.26
X205.708Y-99.568
X205.708Y-167.1
X205.708Y-218.408
M30
