%TF.GenerationSoftware,KiCad,Pcbnew,8.0.3*%
%TF.CreationDate,2024-06-25T22:27:29+05:30*%
%TF.ProjectId,PCB_PANELIZED,5043425f-5041-44e4-954c-495a45442e6b,rev?*%
%TF.SameCoordinates,Original*%
%TF.FileFunction,Legend,Bot*%
%TF.FilePolarity,Positive*%
%FSLAX46Y46*%
G04 Gerber Fmt 4.6, Leading zero omitted, Abs format (unit mm)*
G04 Created by KiCad (PCBNEW 8.0.3) date 2024-06-25 22:27:29*
%MOMM*%
%LPD*%
G01*
G04 APERTURE LIST*
%ADD10C,0.350000*%
G04 APERTURE END LIST*
D10*
X271240000Y-220440000D03*
X268700000Y-220440000D03*
X228060000Y-222980000D03*
X243300000Y-222980000D03*
X243300000Y-189960000D03*
X243300000Y-192500000D03*
X235680000Y-192500000D03*
X235680000Y-189960000D03*
X273260000Y-191660000D03*
X270980000Y-191660000D03*
X268700000Y-191660000D03*
X296640000Y-179800000D03*
X296640000Y-183300000D03*
X284270000Y-139160000D03*
X284270000Y-169640000D03*
X281400000Y-220440000D03*
X281400000Y-215440000D03*
X230600000Y-187420000D03*
X215360000Y-187420000D03*
X178535000Y-231880000D03*
X175995000Y-231880000D03*
X175995000Y-224260000D03*
X178535000Y-224260000D03*
X289020000Y-238220000D03*
X286520000Y-238220000D03*
X201390000Y-235680000D03*
X214090000Y-235680000D03*
X253460000Y-224250000D03*
X253460000Y-236950000D03*
X230600000Y-172180000D03*
X215360000Y-172180000D03*
X174720000Y-235680000D03*
X189960000Y-235680000D03*
X215360000Y-222720000D03*
X215360000Y-220440000D03*
X215360000Y-218160000D03*
X268370000Y-139160000D03*
X268370000Y-169640000D03*
X263620000Y-200120000D03*
X263620000Y-215360000D03*
X243300000Y-165574000D03*
X243300000Y-168114000D03*
X235680000Y-168114000D03*
X235680000Y-165574000D03*
X172180000Y-222980000D03*
X172180000Y-207740000D03*
X243300000Y-181577000D03*
X243300000Y-184117000D03*
X235680000Y-184117000D03*
X235680000Y-181577000D03*
X263620000Y-220440000D03*
X248380000Y-220440000D03*
X253460000Y-179800000D03*
X253460000Y-195040000D03*
X273260000Y-196460000D03*
X270980000Y-196460000D03*
X268700000Y-196460000D03*
X167100000Y-235680000D03*
X167100000Y-210280000D03*
X189960000Y-240760000D03*
X174720000Y-240760000D03*
X253460000Y-215360000D03*
X253460000Y-200120000D03*
X230600000Y-177260000D03*
X215360000Y-177260000D03*
X228060000Y-154400000D03*
X258540000Y-154400000D03*
X230600000Y-200120000D03*
X215360000Y-200120000D03*
X206470000Y-176244000D03*
X206470000Y-178784000D03*
X206470000Y-181324000D03*
X206470000Y-183864000D03*
X206470000Y-186404000D03*
X206470000Y-188944000D03*
X206470000Y-191484000D03*
X206470000Y-194024000D03*
X206470000Y-196564000D03*
X206470000Y-199104000D03*
X206470000Y-201644000D03*
X206470000Y-204184000D03*
X206470000Y-206724000D03*
X206470000Y-209264000D03*
X206470000Y-211804000D03*
X178276000Y-211804000D03*
X178276000Y-209264000D03*
X178276000Y-206724000D03*
X178276000Y-204184000D03*
X178276000Y-201644000D03*
X178276000Y-199104000D03*
X178276000Y-196564000D03*
X178276000Y-194024000D03*
X178276000Y-191484000D03*
X178276000Y-188944000D03*
X178276000Y-186404000D03*
X178276000Y-183864000D03*
X178276000Y-181324000D03*
X178276000Y-178784000D03*
X178276000Y-176244000D03*
X205708000Y-218408000D03*
X205708000Y-167100000D03*
X179546000Y-218154000D03*
X179546000Y-167100000D03*
X278860000Y-210280000D03*
X276360000Y-210280000D03*
X215360000Y-195040000D03*
X230600000Y-195040000D03*
X261080000Y-240760000D03*
X261080000Y-225520000D03*
X243300000Y-198343000D03*
X243300000Y-200883000D03*
X235680000Y-200883000D03*
X235680000Y-198343000D03*
X271240000Y-211550000D03*
X268700000Y-211550000D03*
X281400000Y-179800000D03*
X281400000Y-182340000D03*
X281400000Y-184880000D03*
X283940000Y-205200000D03*
X283940000Y-202660000D03*
X283940000Y-200120000D03*
X196315000Y-242040000D03*
X193775000Y-242040000D03*
X193775000Y-234420000D03*
X196315000Y-234420000D03*
X230600000Y-182340000D03*
X215360000Y-182340000D03*
X243300000Y-215109000D03*
X243300000Y-217649000D03*
X235680000Y-217649000D03*
X235680000Y-215109000D03*
X248380000Y-159480000D03*
X248380000Y-174720000D03*
X230600000Y-210280000D03*
X215360000Y-210280000D03*
X296640000Y-189960000D03*
X296640000Y-195040000D03*
X296640000Y-200120000D03*
X296640000Y-205200000D03*
X276320000Y-139160000D03*
X276320000Y-169640000D03*
X251880000Y-243300000D03*
X248380000Y-243300000D03*
X218420000Y-243300000D03*
X220700000Y-243300000D03*
X222980000Y-243300000D03*
X253460000Y-159480000D03*
X253460000Y-174720000D03*
X231880000Y-216625000D03*
X231880000Y-219165000D03*
X224260000Y-219165000D03*
X224260000Y-216625000D03*
X268700000Y-202660000D03*
X271240000Y-202660000D03*
X258540000Y-215360000D03*
X258540000Y-200120000D03*
X248380000Y-179800000D03*
X248380000Y-195040000D03*
X289100000Y-228060000D03*
X294100000Y-228060000D03*
X278860000Y-189960000D03*
X278860000Y-205200000D03*
X297600000Y-243300000D03*
X294100000Y-243300000D03*
X261080000Y-179800000D03*
X261080000Y-195040000D03*
X220440000Y-239490000D03*
X220440000Y-226790000D03*
X211560000Y-226785000D03*
X211560000Y-229325000D03*
X203940000Y-229325000D03*
X203940000Y-226785000D03*
X268960000Y-174720000D03*
X271240000Y-174720000D03*
X273520000Y-174720000D03*
X273260000Y-182060000D03*
X270980000Y-182060000D03*
X268700000Y-182060000D03*
X242023250Y-227046750D03*
X242023250Y-239046750D03*
X229823250Y-239046750D03*
X227823250Y-233046750D03*
X229823250Y-227046750D03*
X280123250Y-227046750D03*
X280123250Y-239046750D03*
X267923250Y-239046750D03*
X265923250Y-233046750D03*
X267923250Y-227046750D03*
X273260000Y-186860000D03*
X270980000Y-186860000D03*
X268700000Y-186860000D03*
X243300000Y-173194000D03*
X243300000Y-175734000D03*
X235680000Y-175734000D03*
X235680000Y-173194000D03*
X182340000Y-230600000D03*
X197580000Y-230600000D03*
X243300000Y-206726000D03*
X243300000Y-209266000D03*
X235680000Y-209266000D03*
X235680000Y-206726000D03*
X210280000Y-243300000D03*
X206780000Y-243300000D03*
X230600000Y-205200000D03*
X215360000Y-205200000D03*
X296640000Y-211860000D03*
X296640000Y-215360000D03*
X182340000Y-225520000D03*
X197580000Y-225520000D03*
X248380000Y-215360000D03*
X248380000Y-200120000D03*
X121920000Y-202660000D03*
X124460000Y-202660000D03*
X81280000Y-222980000D03*
X96520000Y-222980000D03*
X96520000Y-189960000D03*
X96520000Y-192500000D03*
X88900000Y-192500000D03*
X88900000Y-189960000D03*
X126480000Y-191660000D03*
X124200000Y-191660000D03*
X121920000Y-191660000D03*
X133343250Y-227046750D03*
X133343250Y-239046750D03*
X121143250Y-239046750D03*
X119143250Y-233046750D03*
X121143250Y-227046750D03*
X73660000Y-239490000D03*
X73660000Y-226790000D03*
X149860000Y-179800000D03*
X149860000Y-183300000D03*
X134620000Y-220440000D03*
X134620000Y-215440000D03*
X106680000Y-159480000D03*
X106680000Y-174720000D03*
X83820000Y-187420000D03*
X68580000Y-187420000D03*
X31755000Y-231880000D03*
X29215000Y-231880000D03*
X29215000Y-224260000D03*
X31755000Y-224260000D03*
X150820000Y-243300000D03*
X147320000Y-243300000D03*
X54610000Y-235680000D03*
X67310000Y-235680000D03*
X85100000Y-216625000D03*
X85100000Y-219165000D03*
X77480000Y-219165000D03*
X77480000Y-216625000D03*
X83820000Y-172180000D03*
X68580000Y-172180000D03*
X27940000Y-235680000D03*
X43180000Y-235680000D03*
X68580000Y-222720000D03*
X68580000Y-220440000D03*
X68580000Y-218160000D03*
X121590000Y-139160000D03*
X121590000Y-169640000D03*
X116840000Y-200120000D03*
X116840000Y-215360000D03*
X132080000Y-210280000D03*
X129580000Y-210280000D03*
X25400000Y-222980000D03*
X25400000Y-207740000D03*
X129540000Y-139160000D03*
X129540000Y-169640000D03*
X96520000Y-181577000D03*
X96520000Y-184117000D03*
X88900000Y-184117000D03*
X88900000Y-181577000D03*
X116840000Y-220440000D03*
X101600000Y-220440000D03*
X106680000Y-179800000D03*
X106680000Y-195040000D03*
X83820000Y-177260000D03*
X68580000Y-177260000D03*
X132080000Y-189960000D03*
X132080000Y-205200000D03*
X111760000Y-215360000D03*
X111760000Y-200120000D03*
X20320000Y-235680000D03*
X20320000Y-210280000D03*
X43180000Y-240760000D03*
X27940000Y-240760000D03*
X81280000Y-154400000D03*
X111760000Y-154400000D03*
X83820000Y-200120000D03*
X68580000Y-200120000D03*
X59690000Y-176244000D03*
X59690000Y-178784000D03*
X59690000Y-181324000D03*
X59690000Y-183864000D03*
X59690000Y-186404000D03*
X59690000Y-188944000D03*
X59690000Y-191484000D03*
X59690000Y-194024000D03*
X59690000Y-196564000D03*
X59690000Y-199104000D03*
X59690000Y-201644000D03*
X59690000Y-204184000D03*
X59690000Y-206724000D03*
X59690000Y-209264000D03*
X59690000Y-211804000D03*
X31496000Y-211804000D03*
X31496000Y-209264000D03*
X31496000Y-206724000D03*
X31496000Y-204184000D03*
X31496000Y-201644000D03*
X31496000Y-199104000D03*
X31496000Y-196564000D03*
X31496000Y-194024000D03*
X31496000Y-191484000D03*
X31496000Y-188944000D03*
X31496000Y-186404000D03*
X31496000Y-183864000D03*
X31496000Y-181324000D03*
X31496000Y-178784000D03*
X31496000Y-176244000D03*
X58928000Y-218408000D03*
X58928000Y-167100000D03*
X32766000Y-218154000D03*
X32766000Y-167100000D03*
X68580000Y-195040000D03*
X83820000Y-195040000D03*
X114300000Y-240760000D03*
X114300000Y-225520000D03*
X96520000Y-198343000D03*
X96520000Y-200883000D03*
X88900000Y-200883000D03*
X88900000Y-198343000D03*
X124460000Y-211550000D03*
X121920000Y-211550000D03*
X106680000Y-215360000D03*
X106680000Y-200120000D03*
X83820000Y-182340000D03*
X68580000Y-182340000D03*
X83820000Y-210280000D03*
X68580000Y-210280000D03*
X106680000Y-224250000D03*
X106680000Y-236950000D03*
X96520000Y-215109000D03*
X96520000Y-217649000D03*
X88900000Y-217649000D03*
X88900000Y-215109000D03*
X101600000Y-159480000D03*
X101600000Y-174720000D03*
X149860000Y-189960000D03*
X149860000Y-195040000D03*
X149860000Y-200120000D03*
X149860000Y-205200000D03*
X105100000Y-243300000D03*
X101600000Y-243300000D03*
X71640000Y-243300000D03*
X73920000Y-243300000D03*
X76200000Y-243300000D03*
X142240000Y-238220000D03*
X139740000Y-238220000D03*
X95243250Y-227046750D03*
X95243250Y-239046750D03*
X83043250Y-239046750D03*
X81043250Y-233046750D03*
X83043250Y-227046750D03*
X96520000Y-165574000D03*
X96520000Y-168114000D03*
X88900000Y-168114000D03*
X88900000Y-165574000D03*
X137160000Y-205200000D03*
X137160000Y-202660000D03*
X137160000Y-200120000D03*
X126480000Y-196460000D03*
X124200000Y-196460000D03*
X121920000Y-196460000D03*
X126480000Y-182060000D03*
X124200000Y-182060000D03*
X121920000Y-182060000D03*
X101600000Y-179800000D03*
X101600000Y-195040000D03*
X49535000Y-242040000D03*
X46995000Y-242040000D03*
X46995000Y-234420000D03*
X49535000Y-234420000D03*
X124460000Y-220440000D03*
X121920000Y-220440000D03*
X142320000Y-228060000D03*
X147320000Y-228060000D03*
X114300000Y-179800000D03*
X114300000Y-195040000D03*
X134620000Y-179800000D03*
X134620000Y-182340000D03*
X134620000Y-184880000D03*
X122180000Y-174720000D03*
X124460000Y-174720000D03*
X126740000Y-174720000D03*
X126480000Y-186860000D03*
X124200000Y-186860000D03*
X121920000Y-186860000D03*
X96520000Y-173194000D03*
X96520000Y-175734000D03*
X88900000Y-175734000D03*
X88900000Y-173194000D03*
X137490000Y-139160000D03*
X137490000Y-169640000D03*
X35560000Y-230600000D03*
X50800000Y-230600000D03*
X96520000Y-206726000D03*
X96520000Y-209266000D03*
X88900000Y-209266000D03*
X88900000Y-206726000D03*
X63500000Y-243300000D03*
X60000000Y-243300000D03*
X83820000Y-205200000D03*
X68580000Y-205200000D03*
X149860000Y-211860000D03*
X149860000Y-215360000D03*
X35560000Y-225520000D03*
X50800000Y-225520000D03*
X101600000Y-215360000D03*
X101600000Y-200120000D03*
X64780000Y-226785000D03*
X64780000Y-229325000D03*
X57160000Y-229325000D03*
X57160000Y-226785000D03*
X268700000Y-83820000D03*
X271240000Y-83820000D03*
X228060000Y-104140000D03*
X243300000Y-104140000D03*
X243300000Y-71120000D03*
X243300000Y-73660000D03*
X235680000Y-73660000D03*
X235680000Y-71120000D03*
X273260000Y-72820000D03*
X270980000Y-72820000D03*
X268700000Y-72820000D03*
X289100000Y-109220000D03*
X294100000Y-109220000D03*
X296640000Y-60960000D03*
X296640000Y-64460000D03*
X242023250Y-108206750D03*
X242023250Y-120206750D03*
X229823250Y-120206750D03*
X227823250Y-114206750D03*
X229823250Y-108206750D03*
X253460000Y-40640000D03*
X253460000Y-55880000D03*
X230600000Y-68580000D03*
X215360000Y-68580000D03*
X178535000Y-113040000D03*
X175995000Y-113040000D03*
X175995000Y-105420000D03*
X178535000Y-105420000D03*
X289020000Y-119380000D03*
X286520000Y-119380000D03*
X297600000Y-124460000D03*
X294100000Y-124460000D03*
X253460000Y-105410000D03*
X253460000Y-118110000D03*
X231880000Y-97785000D03*
X231880000Y-100325000D03*
X224260000Y-100325000D03*
X224260000Y-97785000D03*
X230600000Y-53340000D03*
X215360000Y-53340000D03*
X263620000Y-81280000D03*
X263620000Y-96520000D03*
X243300000Y-46734000D03*
X243300000Y-49274000D03*
X235680000Y-49274000D03*
X235680000Y-46734000D03*
X243300000Y-62737000D03*
X243300000Y-65277000D03*
X235680000Y-65277000D03*
X235680000Y-62737000D03*
X263620000Y-101600000D03*
X248380000Y-101600000D03*
X253460000Y-60960000D03*
X253460000Y-76200000D03*
X230600000Y-58420000D03*
X215360000Y-58420000D03*
X258540000Y-96520000D03*
X258540000Y-81280000D03*
X167100000Y-116840000D03*
X167100000Y-91440000D03*
X189960000Y-121920000D03*
X174720000Y-121920000D03*
X273260000Y-63220000D03*
X270980000Y-63220000D03*
X268700000Y-63220000D03*
X253460000Y-96520000D03*
X253460000Y-81280000D03*
X230600000Y-81280000D03*
X215360000Y-81280000D03*
X201390000Y-116840000D03*
X214090000Y-116840000D03*
X206470000Y-57404000D03*
X206470000Y-59944000D03*
X206470000Y-62484000D03*
X206470000Y-65024000D03*
X206470000Y-67564000D03*
X206470000Y-70104000D03*
X206470000Y-72644000D03*
X206470000Y-75184000D03*
X206470000Y-77724000D03*
X206470000Y-80264000D03*
X206470000Y-82804000D03*
X206470000Y-85344000D03*
X206470000Y-87884000D03*
X206470000Y-90424000D03*
X206470000Y-92964000D03*
X178276000Y-92964000D03*
X178276000Y-90424000D03*
X178276000Y-87884000D03*
X178276000Y-85344000D03*
X178276000Y-82804000D03*
X178276000Y-80264000D03*
X178276000Y-77724000D03*
X178276000Y-75184000D03*
X178276000Y-72644000D03*
X178276000Y-70104000D03*
X178276000Y-67564000D03*
X178276000Y-65024000D03*
X178276000Y-62484000D03*
X178276000Y-59944000D03*
X178276000Y-57404000D03*
X205708000Y-99568000D03*
X205708000Y-48260000D03*
X179546000Y-99314000D03*
X179546000Y-48260000D03*
X215360000Y-76200000D03*
X230600000Y-76200000D03*
X243300000Y-79503000D03*
X243300000Y-82043000D03*
X235680000Y-82043000D03*
X235680000Y-79503000D03*
X271240000Y-92710000D03*
X268700000Y-92710000D03*
X281400000Y-60960000D03*
X281400000Y-63500000D03*
X281400000Y-66040000D03*
X283940000Y-86360000D03*
X283940000Y-83820000D03*
X283940000Y-81280000D03*
X281400000Y-101600000D03*
X281400000Y-96600000D03*
X196315000Y-123200000D03*
X193775000Y-123200000D03*
X193775000Y-115580000D03*
X196315000Y-115580000D03*
X273260000Y-77620000D03*
X270980000Y-77620000D03*
X268700000Y-77620000D03*
X230600000Y-63500000D03*
X215360000Y-63500000D03*
X230600000Y-91440000D03*
X215360000Y-91440000D03*
X261080000Y-121920000D03*
X261080000Y-106680000D03*
X243300000Y-96269000D03*
X243300000Y-98809000D03*
X235680000Y-98809000D03*
X235680000Y-96269000D03*
X248380000Y-40640000D03*
X248380000Y-55880000D03*
X296640000Y-71120000D03*
X296640000Y-76200000D03*
X296640000Y-81280000D03*
X296640000Y-86360000D03*
X251880000Y-124460000D03*
X248380000Y-124460000D03*
X218420000Y-124460000D03*
X220700000Y-124460000D03*
X222980000Y-124460000D03*
X174720000Y-116840000D03*
X189960000Y-116840000D03*
X248380000Y-60960000D03*
X248380000Y-76200000D03*
X280123250Y-108206750D03*
X280123250Y-120206750D03*
X267923250Y-120206750D03*
X265923250Y-114206750D03*
X267923250Y-108206750D03*
X228060000Y-35560000D03*
X258540000Y-35560000D03*
X276320000Y-20320000D03*
X276320000Y-50800000D03*
X278860000Y-71120000D03*
X278860000Y-86360000D03*
X211560000Y-107945000D03*
X211560000Y-110485000D03*
X203940000Y-110485000D03*
X203940000Y-107945000D03*
X172180000Y-104140000D03*
X172180000Y-88900000D03*
X268960000Y-55880000D03*
X271240000Y-55880000D03*
X273520000Y-55880000D03*
X215360000Y-103880000D03*
X215360000Y-101600000D03*
X215360000Y-99320000D03*
X273260000Y-68020000D03*
X270980000Y-68020000D03*
X268700000Y-68020000D03*
X243300000Y-54354000D03*
X243300000Y-56894000D03*
X235680000Y-56894000D03*
X235680000Y-54354000D03*
X220440000Y-120650000D03*
X220440000Y-107950000D03*
X182340000Y-111760000D03*
X197580000Y-111760000D03*
X243300000Y-87886000D03*
X243300000Y-90426000D03*
X235680000Y-90426000D03*
X235680000Y-87886000D03*
X210280000Y-124460000D03*
X206780000Y-124460000D03*
X278860000Y-91440000D03*
X276360000Y-91440000D03*
X230600000Y-86360000D03*
X215360000Y-86360000D03*
X296640000Y-93020000D03*
X296640000Y-96520000D03*
X261080000Y-60960000D03*
X261080000Y-76200000D03*
X182340000Y-106680000D03*
X197580000Y-106680000D03*
X284270000Y-20320000D03*
X284270000Y-50800000D03*
X248380000Y-96520000D03*
X248380000Y-81280000D03*
X268370000Y-20320000D03*
X268370000Y-50800000D03*
X271240000Y-101600000D03*
X268700000Y-101600000D03*
X35560000Y-111760000D03*
X50800000Y-111760000D03*
X59690000Y-57404000D03*
X59690000Y-59944000D03*
X59690000Y-62484000D03*
X59690000Y-65024000D03*
X59690000Y-67564000D03*
X59690000Y-70104000D03*
X59690000Y-72644000D03*
X59690000Y-75184000D03*
X59690000Y-77724000D03*
X59690000Y-80264000D03*
X59690000Y-82804000D03*
X59690000Y-85344000D03*
X59690000Y-87884000D03*
X59690000Y-90424000D03*
X59690000Y-92964000D03*
X31496000Y-92964000D03*
X31496000Y-90424000D03*
X31496000Y-87884000D03*
X31496000Y-85344000D03*
X31496000Y-82804000D03*
X31496000Y-80264000D03*
X31496000Y-77724000D03*
X31496000Y-75184000D03*
X31496000Y-72644000D03*
X31496000Y-70104000D03*
X31496000Y-67564000D03*
X31496000Y-65024000D03*
X31496000Y-62484000D03*
X31496000Y-59944000D03*
X31496000Y-57404000D03*
X58928000Y-99568000D03*
X58928000Y-48260000D03*
X32766000Y-99314000D03*
X32766000Y-48260000D03*
X35560000Y-106680000D03*
X50800000Y-106680000D03*
X101600000Y-96520000D03*
X101600000Y-81280000D03*
X63500000Y-124460000D03*
X60000000Y-124460000D03*
X83820000Y-68580000D03*
X68580000Y-68580000D03*
X64780000Y-107945000D03*
X64780000Y-110485000D03*
X57160000Y-110485000D03*
X57160000Y-107945000D03*
X96520000Y-79503000D03*
X96520000Y-82043000D03*
X88900000Y-82043000D03*
X88900000Y-79503000D03*
X114300000Y-121920000D03*
X114300000Y-106680000D03*
X134620000Y-60960000D03*
X134620000Y-63500000D03*
X134620000Y-66040000D03*
X124460000Y-92710000D03*
X121920000Y-92710000D03*
X81280000Y-35560000D03*
X111760000Y-35560000D03*
X126480000Y-77620000D03*
X124200000Y-77620000D03*
X121920000Y-77620000D03*
X83820000Y-81280000D03*
X68580000Y-81280000D03*
X149860000Y-71120000D03*
X149860000Y-76200000D03*
X149860000Y-81280000D03*
X149860000Y-86360000D03*
X111760000Y-96520000D03*
X111760000Y-81280000D03*
X106680000Y-96520000D03*
X106680000Y-81280000D03*
X137160000Y-86360000D03*
X137160000Y-83820000D03*
X137160000Y-81280000D03*
X101600000Y-40640000D03*
X101600000Y-55880000D03*
X20320000Y-116840000D03*
X20320000Y-91440000D03*
X83820000Y-86360000D03*
X68580000Y-86360000D03*
X68580000Y-76200000D03*
X83820000Y-76200000D03*
X83820000Y-58420000D03*
X68580000Y-58420000D03*
X126480000Y-68020000D03*
X124200000Y-68020000D03*
X121920000Y-68020000D03*
X114300000Y-60960000D03*
X114300000Y-76200000D03*
X116840000Y-101600000D03*
X101600000Y-101600000D03*
X129540000Y-20320000D03*
X129540000Y-50800000D03*
X96520000Y-54354000D03*
X96520000Y-56894000D03*
X88900000Y-56894000D03*
X88900000Y-54354000D03*
X116840000Y-81280000D03*
X116840000Y-96520000D03*
X106680000Y-60960000D03*
X106680000Y-76200000D03*
X83820000Y-63500000D03*
X68580000Y-63500000D03*
X96520000Y-62737000D03*
X96520000Y-65277000D03*
X88900000Y-65277000D03*
X88900000Y-62737000D03*
X96520000Y-96269000D03*
X96520000Y-98809000D03*
X88900000Y-98809000D03*
X88900000Y-96269000D03*
X96520000Y-46734000D03*
X96520000Y-49274000D03*
X88900000Y-49274000D03*
X88900000Y-46734000D03*
X132080000Y-71120000D03*
X132080000Y-86360000D03*
X25400000Y-104140000D03*
X25400000Y-88900000D03*
X132080000Y-91440000D03*
X129580000Y-91440000D03*
X83820000Y-91440000D03*
X68580000Y-91440000D03*
X105100000Y-124460000D03*
X101600000Y-124460000D03*
X126480000Y-72820000D03*
X124200000Y-72820000D03*
X121920000Y-72820000D03*
X96520000Y-71120000D03*
X96520000Y-73660000D03*
X88900000Y-73660000D03*
X88900000Y-71120000D03*
X81280000Y-104140000D03*
X96520000Y-104140000D03*
X95243250Y-108206750D03*
X95243250Y-120206750D03*
X83043250Y-120206750D03*
X81043250Y-114206750D03*
X83043250Y-108206750D03*
X121920000Y-83820000D03*
X124460000Y-83820000D03*
X133343250Y-108206750D03*
X133343250Y-120206750D03*
X121143250Y-120206750D03*
X119143250Y-114206750D03*
X121143250Y-108206750D03*
X124460000Y-101600000D03*
X121920000Y-101600000D03*
X126480000Y-63220000D03*
X124200000Y-63220000D03*
X121920000Y-63220000D03*
X49535000Y-123200000D03*
X46995000Y-123200000D03*
X46995000Y-115580000D03*
X49535000Y-115580000D03*
X106680000Y-40640000D03*
X106680000Y-55880000D03*
X73660000Y-120650000D03*
X73660000Y-107950000D03*
X122180000Y-55880000D03*
X124460000Y-55880000D03*
X126740000Y-55880000D03*
X134620000Y-101600000D03*
X134620000Y-96600000D03*
X142320000Y-109220000D03*
X147320000Y-109220000D03*
X137490000Y-20320000D03*
X137490000Y-50800000D03*
X149860000Y-60960000D03*
X149860000Y-64460000D03*
X71640000Y-124460000D03*
X73920000Y-124460000D03*
X76200000Y-124460000D03*
X68580000Y-103880000D03*
X68580000Y-101600000D03*
X68580000Y-99320000D03*
X83820000Y-53340000D03*
X68580000Y-53340000D03*
X43180000Y-121920000D03*
X27940000Y-121920000D03*
X31755000Y-113040000D03*
X29215000Y-113040000D03*
X29215000Y-105420000D03*
X31755000Y-105420000D03*
X142240000Y-119380000D03*
X139740000Y-119380000D03*
X85100000Y-97785000D03*
X85100000Y-100325000D03*
X77480000Y-100325000D03*
X77480000Y-97785000D03*
X27940000Y-116840000D03*
X43180000Y-116840000D03*
X101600000Y-60960000D03*
X101600000Y-76200000D03*
X121590000Y-20320000D03*
X121590000Y-50800000D03*
X54610000Y-116840000D03*
X67310000Y-116840000D03*
X150820000Y-124460000D03*
X147320000Y-124460000D03*
X96520000Y-87886000D03*
X96520000Y-90426000D03*
X88900000Y-90426000D03*
X88900000Y-87886000D03*
X149860000Y-93020000D03*
X149860000Y-96520000D03*
X106680000Y-105410000D03*
X106680000Y-118110000D03*
M02*
