M48
METRIC,TZ
T1C0.300
T2C0.800
T3C0.889
T4C0.900
T5C1.000
T6C1.100
T7C1.200
T8C1.400
T9C1.600
%
G90
G05
T1
X45720Y-96520
X45720Y-215360
X60960Y-96520
X60960Y-215360
X96520Y-111760
X96520Y-230600
X109220Y-81280
X109220Y-99060
X109220Y-200120
X109220Y-217900
X111760Y-124460
X111760Y-243300
X114300Y-96520
X114300Y-104140
X114300Y-215360
X114300Y-222980
X127000Y-86360
X127000Y-88900
X127000Y-205200
X127000Y-207740
X129540Y-71120
X129540Y-81280
X129540Y-189960
X129540Y-200120
X139700Y-76200
X139700Y-195040
X142240Y-73660
X142240Y-81280
X142240Y-192500
X142240Y-200120
X144780Y-76200
X144780Y-195040
X192500Y-96520
X192500Y-215360
X207740Y-96520
X207740Y-215360
X243300Y-111760
X243300Y-230600
X256000Y-81280
X256000Y-99060
X256000Y-200120
X256000Y-217900
X258540Y-124460
X258540Y-243300
X261080Y-96520
X261080Y-104140
X261080Y-215360
X261080Y-222980
X273780Y-86360
X273780Y-88900
X273780Y-205200
X273780Y-207740
X276320Y-71120
X276320Y-81280
X276320Y-189960
X276320Y-200120
X286480Y-76200
X286480Y-195040
X289020Y-73660
X289020Y-81280
X289020Y-192500
X289020Y-200120
X291560Y-76200
X291560Y-195040
T2
X25400Y-88900
X25400Y-104140
X25400Y-207740
X25400Y-222980
X27940Y-116840
X27940Y-121920
X27940Y-235680
X27940Y-240760
X29215Y-105420
X29215Y-113040
X29215Y-224260
X29215Y-231880
X31755Y-105420
X31755Y-113040
X31755Y-224260
X31755Y-231880
X35560Y-106680
X35560Y-111760
X35560Y-225520
X35560Y-230600
X43180Y-116840
X43180Y-121920
X43180Y-235680
X43180Y-240760
X46995Y-115580
X46995Y-123200
X46995Y-234420
X46995Y-242040
X49535Y-115580
X49535Y-123200
X49535Y-234420
X49535Y-242040
X50800Y-106680
X50800Y-111760
X50800Y-225520
X50800Y-230600
X57160Y-107945
X57160Y-110485
X57160Y-226785
X57160Y-229325
X64780Y-107945
X64780Y-110485
X64780Y-226785
X64780Y-229325
X68580Y-53340
X68580Y-58420
X68580Y-63500
X68580Y-68580
X68580Y-76200
X68580Y-81280
X68580Y-86360
X68580Y-91440
X68580Y-172180
X68580Y-177260
X68580Y-182340
X68580Y-187420
X68580Y-195040
X68580Y-200120
X68580Y-205200
X68580Y-210280
X77480Y-97785
X77480Y-100325
X77480Y-216625
X77480Y-219165
X81043Y-114207
X81043Y-233047
X81280Y-104140
X81280Y-222980
X83043Y-108207
X83043Y-120207
X83043Y-227047
X83043Y-239047
X83820Y-53340
X83820Y-58420
X83820Y-63500
X83820Y-68580
X83820Y-76200
X83820Y-81280
X83820Y-86360
X83820Y-91440
X83820Y-172180
X83820Y-177260
X83820Y-182340
X83820Y-187420
X83820Y-195040
X83820Y-200120
X83820Y-205200
X83820Y-210280
X85100Y-97785
X85100Y-100325
X85100Y-216625
X85100Y-219165
X88900Y-46734
X88900Y-49274
X88900Y-54354
X88900Y-56894
X88900Y-62737
X88900Y-65277
X88900Y-71120
X88900Y-73660
X88900Y-79503
X88900Y-82043
X88900Y-87886
X88900Y-90426
X88900Y-96269
X88900Y-98809
X88900Y-165574
X88900Y-168114
X88900Y-173194
X88900Y-175734
X88900Y-181577
X88900Y-184117
X88900Y-189960
X88900Y-192500
X88900Y-198343
X88900Y-200883
X88900Y-206726
X88900Y-209266
X88900Y-215109
X88900Y-217649
X95243Y-108207
X95243Y-120207
X95243Y-227047
X95243Y-239047
X96520Y-46734
X96520Y-49274
X96520Y-54354
X96520Y-56894
X96520Y-62737
X96520Y-65277
X96520Y-71120
X96520Y-73660
X96520Y-79503
X96520Y-82043
X96520Y-87886
X96520Y-90426
X96520Y-96269
X96520Y-98809
X96520Y-104140
X96520Y-165574
X96520Y-168114
X96520Y-173194
X96520Y-175734
X96520Y-181577
X96520Y-184117
X96520Y-189960
X96520Y-192500
X96520Y-198343
X96520Y-200883
X96520Y-206726
X96520Y-209266
X96520Y-215109
X96520Y-217649
X96520Y-222980
X101600Y-40640
X101600Y-55880
X101600Y-60960
X101600Y-76200
X101600Y-81280
X101600Y-96520
X101600Y-101600
X101600Y-159480
X101600Y-174720
X101600Y-179800
X101600Y-195040
X101600Y-200120
X101600Y-215360
X101600Y-220440
X106680Y-40640
X106680Y-55880
X106680Y-60960
X106680Y-76200
X106680Y-81280
X106680Y-96520
X106680Y-159480
X106680Y-174720
X106680Y-179800
X106680Y-195040
X106680Y-200120
X106680Y-215360
X111760Y-81280
X111760Y-96520
X111760Y-200120
X111760Y-215360
X114300Y-60960
X114300Y-76200
X114300Y-106680
X114300Y-121920
X114300Y-179800
X114300Y-195040
X114300Y-225520
X114300Y-240760
X116840Y-81280
X116840Y-96520
X116840Y-101600
X116840Y-200120
X116840Y-215360
X116840Y-220440
X119143Y-114207
X119143Y-233047
X121143Y-108207
X121143Y-120207
X121143Y-227047
X121143Y-239047
X129580Y-91440
X129580Y-210280
X132080Y-71120
X132080Y-86360
X132080Y-91440
X132080Y-189960
X132080Y-205200
X132080Y-210280
X133343Y-108207
X133343Y-120207
X133343Y-227047
X133343Y-239047
X139740Y-119380
X139740Y-238220
X142240Y-119380
X142240Y-238220
X172180Y-88900
X172180Y-104140
X172180Y-207740
X172180Y-222980
X174720Y-116840
X174720Y-121920
X174720Y-235680
X174720Y-240760
X175995Y-105420
X175995Y-113040
X175995Y-224260
X175995Y-231880
X178535Y-105420
X178535Y-113040
X178535Y-224260
X178535Y-231880
X182340Y-106680
X182340Y-111760
X182340Y-225520
X182340Y-230600
X189960Y-116840
X189960Y-121920
X189960Y-235680
X189960Y-240760
X193775Y-115580
X193775Y-123200
X193775Y-234420
X193775Y-242040
X196315Y-115580
X196315Y-123200
X196315Y-234420
X196315Y-242040
X197580Y-106680
X197580Y-111760
X197580Y-225520
X197580Y-230600
X203940Y-107945
X203940Y-110485
X203940Y-226785
X203940Y-229325
X211560Y-107945
X211560Y-110485
X211560Y-226785
X211560Y-229325
X215360Y-53340
X215360Y-58420
X215360Y-63500
X215360Y-68580
X215360Y-76200
X215360Y-81280
X215360Y-86360
X215360Y-91440
X215360Y-172180
X215360Y-177260
X215360Y-182340
X215360Y-187420
X215360Y-195040
X215360Y-200120
X215360Y-205200
X215360Y-210280
X224260Y-97785
X224260Y-100325
X224260Y-216625
X224260Y-219165
X227823Y-114207
X227823Y-233047
X228060Y-104140
X228060Y-222980
X229823Y-108207
X229823Y-120207
X229823Y-227047
X229823Y-239047
X230600Y-53340
X230600Y-58420
X230600Y-63500
X230600Y-68580
X230600Y-76200
X230600Y-81280
X230600Y-86360
X230600Y-91440
X230600Y-172180
X230600Y-177260
X230600Y-182340
X230600Y-187420
X230600Y-195040
X230600Y-200120
X230600Y-205200
X230600Y-210280
X231880Y-97785
X231880Y-100325
X231880Y-216625
X231880Y-219165
X235680Y-46734
X235680Y-49274
X235680Y-54354
X235680Y-56894
X235680Y-62737
X235680Y-65277
X235680Y-71120
X235680Y-73660
X235680Y-79503
X235680Y-82043
X235680Y-87886
X235680Y-90426
X235680Y-96269
X235680Y-98809
X235680Y-165574
X235680Y-168114
X235680Y-173194
X235680Y-175734
X235680Y-181577
X235680Y-184117
X235680Y-189960
X235680Y-192500
X235680Y-198343
X235680Y-200883
X235680Y-206726
X235680Y-209266
X235680Y-215109
X235680Y-217649
X242023Y-108207
X242023Y-120207
X242023Y-227047
X242023Y-239047
X243300Y-46734
X243300Y-49274
X243300Y-54354
X243300Y-56894
X243300Y-62737
X243300Y-65277
X243300Y-71120
X243300Y-73660
X243300Y-79503
X243300Y-82043
X243300Y-87886
X243300Y-90426
X243300Y-96269
X243300Y-98809
X243300Y-104140
X243300Y-165574
X243300Y-168114
X243300Y-173194
X243300Y-175734
X243300Y-181577
X243300Y-184117
X243300Y-189960
X243300Y-192500
X243300Y-198343
X243300Y-200883
X243300Y-206726
X243300Y-209266
X243300Y-215109
X243300Y-217649
X243300Y-222980
X248380Y-40640
X248380Y-55880
X248380Y-60960
X248380Y-76200
X248380Y-81280
X248380Y-96520
X248380Y-101600
X248380Y-159480
X248380Y-174720
X248380Y-179800
X248380Y-195040
X248380Y-200120
X248380Y-215360
X248380Y-220440
X253460Y-40640
X253460Y-55880
X253460Y-60960
X253460Y-76200
X253460Y-81280
X253460Y-96520
X253460Y-159480
X253460Y-174720
X253460Y-179800
X253460Y-195040
X253460Y-200120
X253460Y-215360
X258540Y-81280
X258540Y-96520
X258540Y-200120
X258540Y-215360
X261080Y-60960
X261080Y-76200
X261080Y-106680
X261080Y-121920
X261080Y-179800
X261080Y-195040
X261080Y-225520
X261080Y-240760
X263620Y-81280
X263620Y-96520
X263620Y-101600
X263620Y-200120
X263620Y-215360
X263620Y-220440
X265923Y-114207
X265923Y-233047
X267923Y-108207
X267923Y-120207
X267923Y-227047
X267923Y-239047
X276360Y-91440
X276360Y-210280
X278860Y-71120
X278860Y-86360
X278860Y-91440
X278860Y-189960
X278860Y-205200
X278860Y-210280
X280123Y-108207
X280123Y-120207
X280123Y-227047
X280123Y-239047
X286520Y-119380
X286520Y-238220
X289020Y-119380
X289020Y-238220
T3
X31496Y-57404
X31496Y-59944
X31496Y-62484
X31496Y-65024
X31496Y-67564
X31496Y-70104
X31496Y-72644
X31496Y-75184
X31496Y-77724
X31496Y-80264
X31496Y-82804
X31496Y-85344
X31496Y-87884
X31496Y-90424
X31496Y-92964
X31496Y-176244
X31496Y-178784
X31496Y-181324
X31496Y-183864
X31496Y-186404
X31496Y-188944
X31496Y-191484
X31496Y-194024
X31496Y-196564
X31496Y-199104
X31496Y-201644
X31496Y-204184
X31496Y-206724
X31496Y-209264
X31496Y-211804
X59690Y-57404
X59690Y-59944
X59690Y-62484
X59690Y-65024
X59690Y-67564
X59690Y-70104
X59690Y-72644
X59690Y-75184
X59690Y-77724
X59690Y-80264
X59690Y-82804
X59690Y-85344
X59690Y-87884
X59690Y-90424
X59690Y-92964
X59690Y-176244
X59690Y-178784
X59690Y-181324
X59690Y-183864
X59690Y-186404
X59690Y-188944
X59690Y-191484
X59690Y-194024
X59690Y-196564
X59690Y-199104
X59690Y-201644
X59690Y-204184
X59690Y-206724
X59690Y-209264
X59690Y-211804
X178276Y-57404
X178276Y-59944
X178276Y-62484
X178276Y-65024
X178276Y-67564
X178276Y-70104
X178276Y-72644
X178276Y-75184
X178276Y-77724
X178276Y-80264
X178276Y-82804
X178276Y-85344
X178276Y-87884
X178276Y-90424
X178276Y-92964
X178276Y-176244
X178276Y-178784
X178276Y-181324
X178276Y-183864
X178276Y-186404
X178276Y-188944
X178276Y-191484
X178276Y-194024
X178276Y-196564
X178276Y-199104
X178276Y-201644
X178276Y-204184
X178276Y-206724
X178276Y-209264
X178276Y-211804
X206470Y-57404
X206470Y-59944
X206470Y-62484
X206470Y-65024
X206470Y-67564
X206470Y-70104
X206470Y-72644
X206470Y-75184
X206470Y-77724
X206470Y-80264
X206470Y-82804
X206470Y-85344
X206470Y-87884
X206470Y-90424
X206470Y-92964
X206470Y-176244
X206470Y-178784
X206470Y-181324
X206470Y-183864
X206470Y-186404
X206470Y-188944
X206470Y-191484
X206470Y-194024
X206470Y-196564
X206470Y-199104
X206470Y-201644
X206470Y-204184
X206470Y-206724
X206470Y-209264
X206470Y-211804
T4
X121920Y-83820
X121920Y-92710
X121920Y-101600
X121920Y-202660
X121920Y-211550
X121920Y-220440
X124460Y-83820
X124460Y-92710
X124460Y-101600
X124460Y-202660
X124460Y-211550
X124460Y-220440
X268700Y-83820
X268700Y-92710
X268700Y-101600
X268700Y-202660
X268700Y-211550
X268700Y-220440
X271240Y-83820
X271240Y-92710
X271240Y-101600
X271240Y-202660
X271240Y-211550
X271240Y-220440
T5
X68580Y-99320
X68580Y-101600
X68580Y-103880
X68580Y-218160
X68580Y-220440
X68580Y-222720
X71640Y-124460
X71640Y-243300
X73920Y-124460
X73920Y-243300
X76200Y-124460
X76200Y-243300
X121920Y-63220
X121920Y-68020
X121920Y-72820
X121920Y-77620
X121920Y-182060
X121920Y-186860
X121920Y-191660
X121920Y-196460
X122180Y-55880
X122180Y-174720
X124200Y-63220
X124200Y-68020
X124200Y-72820
X124200Y-77620
X124200Y-182060
X124200Y-186860
X124200Y-191660
X124200Y-196460
X124460Y-55880
X124460Y-174720
X126480Y-63220
X126480Y-68020
X126480Y-72820
X126480Y-77620
X126480Y-182060
X126480Y-186860
X126480Y-191660
X126480Y-196460
X126740Y-55880
X126740Y-174720
X134620Y-96600
X134620Y-101600
X134620Y-215440
X134620Y-220440
X142320Y-109220
X142320Y-228060
X147320Y-109220
X147320Y-228060
X215360Y-99320
X215360Y-101600
X215360Y-103880
X215360Y-218160
X215360Y-220440
X215360Y-222720
X218420Y-124460
X218420Y-243300
X220700Y-124460
X220700Y-243300
X222980Y-124460
X222980Y-243300
X268700Y-63220
X268700Y-68020
X268700Y-72820
X268700Y-77620
X268700Y-182060
X268700Y-186860
X268700Y-191660
X268700Y-196460
X268960Y-55880
X268960Y-174720
X270980Y-63220
X270980Y-68020
X270980Y-72820
X270980Y-77620
X270980Y-182060
X270980Y-186860
X270980Y-191660
X270980Y-196460
X271240Y-55880
X271240Y-174720
X273260Y-63220
X273260Y-68020
X273260Y-72820
X273260Y-77620
X273260Y-182060
X273260Y-186860
X273260Y-191660
X273260Y-196460
X273520Y-55880
X273520Y-174720
X281400Y-96600
X281400Y-101600
X281400Y-215440
X281400Y-220440
X289100Y-109220
X289100Y-228060
X294100Y-109220
X294100Y-228060
T6
X134620Y-60960
X134620Y-63500
X134620Y-66040
X134620Y-179800
X134620Y-182340
X134620Y-184880
X137160Y-81280
X137160Y-83820
X137160Y-86360
X137160Y-200120
X137160Y-202660
X137160Y-205200
X281400Y-60960
X281400Y-63500
X281400Y-66040
X281400Y-179800
X281400Y-182340
X281400Y-184880
X283940Y-81280
X283940Y-83820
X283940Y-86360
X283940Y-200120
X283940Y-202660
X283940Y-205200
T7
X20320Y-91440
X20320Y-116840
X20320Y-210280
X20320Y-235680
X60000Y-124460
X60000Y-243300
X63500Y-124460
X63500Y-243300
X81280Y-35560
X81280Y-154400
X101600Y-124460
X101600Y-243300
X105100Y-124460
X105100Y-243300
X111760Y-35560
X111760Y-154400
X121590Y-20320
X121590Y-50800
X121590Y-139160
X121590Y-169640
X129540Y-20320
X129540Y-50800
X129540Y-139160
X129540Y-169640
X137490Y-20320
X137490Y-50800
X137490Y-139160
X137490Y-169640
X147320Y-124460
X147320Y-243300
X149860Y-60960
X149860Y-64460
X149860Y-93020
X149860Y-96520
X149860Y-179800
X149860Y-183300
X149860Y-211860
X149860Y-215360
X150820Y-124460
X150820Y-243300
X167100Y-91440
X167100Y-116840
X167100Y-210280
X167100Y-235680
X206780Y-124460
X206780Y-243300
X210280Y-124460
X210280Y-243300
X228060Y-35560
X228060Y-154400
X248380Y-124460
X248380Y-243300
X251880Y-124460
X251880Y-243300
X258540Y-35560
X258540Y-154400
X268370Y-20320
X268370Y-50800
X268370Y-139160
X268370Y-169640
X276320Y-20320
X276320Y-50800
X276320Y-139160
X276320Y-169640
X284270Y-20320
X284270Y-50800
X284270Y-139160
X284270Y-169640
X294100Y-124460
X294100Y-243300
X296640Y-60960
X296640Y-64460
X296640Y-93020
X296640Y-96520
X296640Y-179800
X296640Y-183300
X296640Y-211860
X296640Y-215360
X297600Y-124460
X297600Y-243300
T8
X54610Y-116840
X54610Y-235680
X67310Y-116840
X67310Y-235680
X73660Y-107950
X73660Y-120650
X73660Y-226790
X73660Y-239490
X106680Y-105410
X106680Y-118110
X106680Y-224250
X106680Y-236950
X201390Y-116840
X201390Y-235680
X214090Y-116840
X214090Y-235680
X220440Y-107950
X220440Y-120650
X220440Y-226790
X220440Y-239490
X253460Y-105410
X253460Y-118110
X253460Y-224250
X253460Y-236950
T9
X149860Y-71120
X149860Y-76200
X149860Y-81280
X149860Y-86360
X149860Y-189960
X149860Y-195040
X149860Y-200120
X149860Y-205200
X296640Y-71120
X296640Y-76200
X296640Y-81280
X296640Y-86360
X296640Y-189960
X296640Y-195040
X296640Y-200120
X296640Y-205200
M30
