M48
METRIC,TZ
T1C0.300
T2C0.600
T3C0.800
T4C0.889
T5C0.900
T6C1.000
T7C1.100
T8C1.200
T9C1.400
T10C1.600
%
G90
G05
T1
X103000Y-72500
X103063Y-68250
X104140Y-116840
X105250Y-68250
X105250Y-72500
X107625Y-72500
X107750Y-68250
X109938Y-72500
X110000Y-68250
X112250Y-68250
X112250Y-72500
X116750Y-54750
X116750Y-57000
X118438Y-54750
X118438Y-57000
X119380Y-116840
X120125Y-54750
X120125Y-57000
X121813Y-54750
X121813Y-57000
X122500Y-38750
X122500Y-41000
X123500Y-54750
X123500Y-57000
X124188Y-38750
X124188Y-41000
X125875Y-38750
X125875Y-41000
X127563Y-38750
X127563Y-41000
X129250Y-38750
X129250Y-41000
X147500Y-145000
X153250Y-69750
X154940Y-132080
X157250Y-50750
X167640Y-101600
X167640Y-119380
X170180Y-144780
X172720Y-116840
X172720Y-124460
X185420Y-106680
X185420Y-109220
X187960Y-101600
X198120Y-96520
X200660Y-93980
X200660Y-101600
X201750Y-90250
X203200Y-96520
T3
X83820Y-109220
X83820Y-124460
X86360Y-137160
X86360Y-142240
X87635Y-125740
X87635Y-133360
X90175Y-125740
X90175Y-133360
X93980Y-127000
X93980Y-132080
X101600Y-137160
X101600Y-142240
X105415Y-135900
X105415Y-143520
X107955Y-135900
X107955Y-143520
X109220Y-127000
X109220Y-132080
X115580Y-128265
X115580Y-130805
X123200Y-128265
X123200Y-130805
X127000Y-73660
X127000Y-78740
X127000Y-83820
X127000Y-88900
X127000Y-96520
X127000Y-101600
X127000Y-106680
X127000Y-111760
X135900Y-118105
X135900Y-120645
X139463Y-134527
X139700Y-124460
X141463Y-128527
X141463Y-140527
X142240Y-73660
X142240Y-78740
X142240Y-83820
X142240Y-88900
X142240Y-96520
X142240Y-101600
X142240Y-106680
X142240Y-111760
X143520Y-118105
X143520Y-120645
X147320Y-67054
X147320Y-69594
X147320Y-74674
X147320Y-77214
X147320Y-83057
X147320Y-85597
X147320Y-91440
X147320Y-93980
X147320Y-99823
X147320Y-102363
X147320Y-108206
X147320Y-110746
X147320Y-116589
X147320Y-119129
X153663Y-128527
X153663Y-140527
X154940Y-67054
X154940Y-69594
X154940Y-74674
X154940Y-77214
X154940Y-83057
X154940Y-85597
X154940Y-91440
X154940Y-93980
X154940Y-99823
X154940Y-102363
X154940Y-108206
X154940Y-110746
X154940Y-116589
X154940Y-119129
X154940Y-124460
X160020Y-60960
X160020Y-76200
X160020Y-81280
X160020Y-96520
X160020Y-101600
X160020Y-116840
X160020Y-121920
X165100Y-81280
X165100Y-96520
X165100Y-101600
X165100Y-116840
X165250Y-60880
X165250Y-76120
X170180Y-101600
X170180Y-116840
X172720Y-81280
X172720Y-96520
X172720Y-127000
X172720Y-142240
X175260Y-101600
X175260Y-116840
X175260Y-121920
X177260Y-145200
X177260Y-149250
X177563Y-134527
X179563Y-128527
X179563Y-140527
X188000Y-111760
X190500Y-91440
X190500Y-106680
X190500Y-111760
X191763Y-128527
X191763Y-140527
X192500Y-145200
X192500Y-149250
X198160Y-139700
X200660Y-139700
T4
X89916Y-77724
X89916Y-80264
X89916Y-82804
X89916Y-85344
X89916Y-87884
X89916Y-90424
X89916Y-92964
X89916Y-95504
X89916Y-98044
X89916Y-100584
X89916Y-103124
X89916Y-105664
X89916Y-108204
X89916Y-110744
X89916Y-113284
X118110Y-77724
X118110Y-80264
X118110Y-82804
X118110Y-85344
X118110Y-87884
X118110Y-90424
X118110Y-92964
X118110Y-95504
X118110Y-98044
X118110Y-100584
X118110Y-103124
X118110Y-105664
X118110Y-108204
X118110Y-110744
X118110Y-113284
T5
X180340Y-104140
X180340Y-113030
X180340Y-121920
X182880Y-104140
X182880Y-113030
X182880Y-121920
T6
X127000Y-119640
X127000Y-121920
X127000Y-124200
X130060Y-144780
X132340Y-144780
X134620Y-144780
X142190Y-63000
X142590Y-48650
X144470Y-63000
X145130Y-48650
X146750Y-63000
X155290Y-48650
X162910Y-48650
X180340Y-83540
X180340Y-88340
X180340Y-93140
X180340Y-97940
X180600Y-76200
X182620Y-83540
X182620Y-88340
X182620Y-93140
X182620Y-97940
X182880Y-76200
X184900Y-83540
X184900Y-88340
X184900Y-93140
X184900Y-97940
X185160Y-76200
X193040Y-116920
X193040Y-121920
X200740Y-129540
X205740Y-129540
T7
X193040Y-81280
X193040Y-83820
X193040Y-86360
X195580Y-101600
X195580Y-104140
X195580Y-106680
T8
X78740Y-111760
X78740Y-137160
X118420Y-144780
X121920Y-144780
X139700Y-55880
X160020Y-144780
X163520Y-144780
X170180Y-55880
X174770Y-52050
X174770Y-60000
X174770Y-67950
X187500Y-42600
X191000Y-42600
X204500Y-42250
X205250Y-52050
X205250Y-60000
X205250Y-67950
X205740Y-144780
X208000Y-42250
X208280Y-81280
X208280Y-84780
X209240Y-144780
X213500Y-49250
X213500Y-52750
T9
X113030Y-137160
X125730Y-137160
X132080Y-128270
X132080Y-140970
X141900Y-41000
X154600Y-41000
X165100Y-125730
X165100Y-138430
T10
X208280Y-91440
X208280Y-96520
X208280Y-101600
X208280Y-106680
T2
G00X142680Y-147450
M15
G01X142680Y-148050
M16
G05
G00X142680Y-151250
M15
G01X142680Y-151850
M16
G05
G00X151320Y-147450
M15
G01X151320Y-148050
M16
G05
G00X151320Y-151250
M15
G01X151320Y-151850
M16
G05
M30
