M48
; DRILL file {KiCad 8.0.3} date 2024-06-26T23:10:24+0530
; FORMAT={-:-/ absolute / metric / decimal}
; #@! TF.CreationDate,2024-06-26T23:10:24+05:30
; #@! TF.GenerationSoftware,Kicad,Pcbnew,8.0.3
; #@! TF.FileFunction,Plated,1,2,PTH
FMAT,2
METRIC
; #@! TA.AperFunction,Plated,PTH,ViaDrill
T1C0.300
; #@! TA.AperFunction,Plated,PTH,ViaDrill
T2C0.600
; #@! TA.AperFunction,Plated,PTH,ComponentDrill
T3C0.600
; #@! TA.AperFunction,Plated,PTH,ComponentDrill
T4C0.800
; #@! TA.AperFunction,Plated,PTH,ComponentDrill
T5C0.889
; #@! TA.AperFunction,Plated,PTH,ComponentDrill
T6C0.900
; #@! TA.AperFunction,Plated,PTH,ComponentDrill
T7C1.000
; #@! TA.AperFunction,Plated,PTH,ComponentDrill
T8C1.100
; #@! TA.AperFunction,Plated,PTH,ComponentDrill
T9C1.200
; #@! TA.AperFunction,Plated,PTH,ComponentDrill
T10C1.400
; #@! TA.AperFunction,Plated,PTH,ComponentDrill
T11C1.600
%
G90
G05
T1
X103.0Y-72.5
X103.062Y-68.25
X104.14Y-116.84
X105.25Y-68.25
X105.25Y-72.5
X107.625Y-72.5
X107.75Y-68.25
X109.938Y-72.5
X110.0Y-68.25
X112.25Y-68.25
X112.25Y-72.5
X119.38Y-116.84
X154.94Y-132.08
X167.64Y-101.6
X167.64Y-119.38
X170.18Y-144.78
X172.72Y-116.84
X172.72Y-124.46
X185.42Y-106.68
X185.42Y-109.22
X187.96Y-91.44
X187.96Y-101.6
X198.12Y-96.52
X200.66Y-93.98
X200.66Y-101.6
X203.2Y-96.52
T2
X208.5Y-56.75
X208.5Y-59.0
X208.5Y-61.25
X208.5Y-63.75
X208.5Y-65.938
X212.75Y-56.75
X212.75Y-59.062
X212.75Y-61.375
X212.75Y-63.75
X212.75Y-66.0
T4
X83.82Y-109.22
X83.82Y-124.46
X86.36Y-137.16
X86.36Y-142.24
X87.635Y-125.74
X87.635Y-133.36
X90.175Y-125.74
X90.175Y-133.36
X93.98Y-127.0
X93.98Y-132.08
X101.6Y-137.16
X101.6Y-142.24
X105.415Y-135.9
X105.415Y-143.52
X107.955Y-135.9
X107.955Y-143.52
X109.22Y-127.0
X109.22Y-132.08
X115.58Y-128.265
X115.58Y-130.805
X123.2Y-128.265
X123.2Y-130.805
X127.0Y-73.66
X127.0Y-78.74
X127.0Y-83.82
X127.0Y-88.9
X127.0Y-96.52
X127.0Y-101.6
X127.0Y-106.68
X127.0Y-111.76
X135.9Y-118.105
X135.9Y-120.645
X139.463Y-134.527
X139.7Y-124.46
X141.463Y-128.527
X141.463Y-140.527
X142.24Y-73.66
X142.24Y-78.74
X142.24Y-83.82
X142.24Y-88.9
X142.24Y-96.52
X142.24Y-101.6
X142.24Y-106.68
X142.24Y-111.76
X143.52Y-118.105
X143.52Y-120.645
X147.32Y-67.054
X147.32Y-69.594
X147.32Y-74.674
X147.32Y-77.214
X147.32Y-83.057
X147.32Y-85.597
X147.32Y-91.44
X147.32Y-93.98
X147.32Y-99.823
X147.32Y-102.363
X147.32Y-108.206
X147.32Y-110.746
X147.32Y-116.589
X147.32Y-119.129
X153.663Y-128.527
X153.663Y-140.527
X154.94Y-67.054
X154.94Y-69.594
X154.94Y-74.674
X154.94Y-77.214
X154.94Y-83.057
X154.94Y-85.597
X154.94Y-91.44
X154.94Y-93.98
X154.94Y-99.823
X154.94Y-102.363
X154.94Y-108.206
X154.94Y-110.746
X154.94Y-116.589
X154.94Y-119.129
X154.94Y-124.46
X160.02Y-60.96
X160.02Y-76.2
X160.02Y-81.28
X160.02Y-96.52
X160.02Y-101.6
X160.02Y-116.84
X160.02Y-121.92
X165.1Y-60.96
X165.1Y-76.2
X165.1Y-81.28
X165.1Y-96.52
X165.1Y-101.6
X165.1Y-116.84
X170.18Y-101.6
X170.18Y-116.84
X172.72Y-81.28
X172.72Y-96.52
X172.72Y-127.0
X172.72Y-142.24
X175.26Y-101.6
X175.26Y-116.84
X175.26Y-121.92
X177.26Y-145.2
X177.26Y-149.25
X177.563Y-134.527
X179.563Y-128.527
X179.563Y-140.527
X188.0Y-111.76
X190.5Y-91.44
X190.5Y-106.68
X190.5Y-111.76
X191.763Y-128.527
X191.763Y-140.527
X192.5Y-145.2
X192.5Y-149.25
X198.16Y-139.7
X200.66Y-139.7
T5
X89.916Y-77.724
X89.916Y-80.264
X89.916Y-82.804
X89.916Y-85.344
X89.916Y-87.884
X89.916Y-90.424
X89.916Y-92.964
X89.916Y-95.504
X89.916Y-98.044
X89.916Y-100.584
X89.916Y-103.124
X89.916Y-105.664
X89.916Y-108.204
X89.916Y-110.744
X89.916Y-113.284
X118.11Y-77.724
X118.11Y-80.264
X118.11Y-82.804
X118.11Y-85.344
X118.11Y-87.884
X118.11Y-90.424
X118.11Y-92.964
X118.11Y-95.504
X118.11Y-98.044
X118.11Y-100.584
X118.11Y-103.124
X118.11Y-105.664
X118.11Y-108.204
X118.11Y-110.744
X118.11Y-113.284
T6
X180.34Y-104.14
X180.34Y-113.03
X180.34Y-121.92
X182.88Y-104.14
X182.88Y-113.03
X182.88Y-121.92
T7
X127.0Y-119.64
X127.0Y-121.92
X127.0Y-124.2
X130.06Y-144.78
X132.34Y-144.78
X134.62Y-144.78
X180.34Y-83.54
X180.34Y-88.34
X180.34Y-93.14
X180.34Y-97.94
X180.6Y-76.2
X182.62Y-83.54
X182.62Y-88.34
X182.62Y-93.14
X182.62Y-97.94
X182.88Y-76.2
X184.9Y-83.54
X184.9Y-88.34
X184.9Y-93.14
X184.9Y-97.94
X185.16Y-76.2
X193.04Y-116.92
X193.04Y-121.92
X200.74Y-129.54
X205.74Y-129.54
T8
X193.04Y-81.28
X193.04Y-83.82
X193.04Y-86.36
X195.58Y-101.6
X195.58Y-104.14
X195.58Y-106.68
T9
X78.74Y-111.76
X78.74Y-137.16
X118.42Y-144.78
X121.92Y-144.78
X139.7Y-55.88
X160.02Y-144.78
X163.52Y-144.78
X170.18Y-55.88
X180.01Y-40.64
X180.01Y-71.12
X187.96Y-40.64
X187.96Y-71.12
X195.91Y-40.64
X195.91Y-71.12
X205.74Y-144.78
X208.28Y-81.28
X208.28Y-84.78
X208.28Y-113.34
X208.28Y-116.84
X209.24Y-144.78
T10
X113.03Y-137.16
X125.73Y-137.16
X132.08Y-128.27
X132.08Y-140.97
X165.1Y-125.73
X165.1Y-138.43
T11
X208.28Y-91.44
X208.28Y-96.52
X208.28Y-101.6
X208.28Y-106.68
T3
G00X144.93Y-148.9
M15
G01X144.93Y-149.5
M16
G05
G00X144.93Y-152.7
M15
G01X144.93Y-153.3
M16
G05
G00X153.57Y-148.9
M15
G01X153.57Y-149.5
M16
G05
G00X153.57Y-152.7
M15
G01X153.57Y-153.3
M16
G05
M30
